<svg xmlns="http://www.w3.org/2000/svg" width="1200" height="160" viewBox="0 0 1200 160" role="img" aria-labelledby="title"><title id="title">Launch the Apple Silicon AI collection: models, data, demos, and guides.</title><defs><pattern id="mesh" width="16" height="16" patternUnits="userSpaceOnUse"><path d="M16 0H0V16" fill="none" stroke="#aaa395" stroke-width=".45" opacity=".16"/></pattern><pattern id="dots" width="7" height="9" patternUnits="userSpaceOnUse"><circle cx="2" cy="3" r=".55" fill="#191918" opacity=".2"/></pattern></defs><path fill="#d93b2c" d="M0 0h1200v160H0z"/><path fill="url(#mesh)" d="M0 0h1200v160H0z"/><g fill="#191918" transform="translate(24 88) scale(0.02587890625 -0.02587890625)"><path transform="translate(0 0)" d="M291 0V579L10 1760H359L457 1164L555 1760H903L623 579V0Z"/><path transform="translate(914 0)" d="M498 -16Q287 -16 175.5 111.5Q64 239 64 480V1316Q64 1542 174.5 1659.0Q285 1776 498 1776Q711 1776 821.5 1659.0Q932 1542 932 1316V480Q932 239 820.5 111.5Q709 -16 498 -16ZM501 308Q581 308 581 463V1322Q581 1452 503 1452Q415 1452 415 1319V461Q415 379 435.0 343.5Q455 308 501 308Z"/><path transform="translate(1910 0)" d="M485 -16Q265 -16 161.0 107.5Q57 231 57 471V1760H399V485Q399 441 404.0 400.5Q409 360 427.0 334.0Q445 308 485 308Q526 308 544.0 333.5Q562 359 566.5 400.0Q571 441 571 485V1760H913V471Q913 231 809.0 107.5Q705 -16 485 -16Z"/><path transform="translate(2880 0)" d="M78 0V1760H618Q753 1760 822.0 1698.5Q891 1637 914.5 1526.5Q938 1416 938 1267Q938 1123 901.5 1037.0Q865 951 764 918Q847 901 880.5 835.5Q914 770 914 666V0H567V689Q567 766 535.5 784.5Q504 803 434 803V0ZM436 1108H521Q594 1108 594 1267Q594 1370 578.0 1402.0Q562 1434 518 1434H436Z"/><path transform="translate(3856 0)" d=""/><path transform="translate(4336 0)" d="M78 0V1760H440L602 917V1760H942V0H598L422 880V0Z"/><path transform="translate(5356 0)" d="M78 0V1760H782V1420H436V1077H768V746H436V343H805V0Z"/><path transform="translate(6199 0)" d="M27 0 216 933 66 1761H410L501 1156L582 1761H927L777 933L965 0H609L498 688L384 0Z"/><path transform="translate(7190 0)" d="M229 0V1422H20V1760H790V1422H581V0Z"/><path transform="translate(8000 0)" d=""/><path transform="translate(8480 0)" d="M488 -16Q297 -16 180.5 103.0Q64 222 64 436V1248Q64 1504 165.5 1640.0Q267 1776 496 1776Q621 1776 718.5 1730.0Q816 1684 872.0 1592.5Q928 1501 928 1362V1058H578V1318Q578 1397 558.0 1424.5Q538 1452 496 1452Q447 1452 430.0 1416.5Q413 1381 413 1322V441Q413 368 434.5 338.0Q456 308 496 308Q541 308 559.5 345.0Q578 382 578 441V758H932V425Q932 193 815.0 88.5Q698 -16 488 -16Z"/><path transform="translate(9451 0)" d="M78 0V1760H430V300H792V0Z"/><path transform="translate(10265 0)" d="M62 0V1760H402V0Z"/><path transform="translate(10729 0)" d="M488 -16Q297 -16 180.5 103.0Q64 222 64 436V1248Q64 1504 165.5 1640.0Q267 1776 496 1776Q621 1776 718.5 1730.0Q816 1684 872.0 1592.5Q928 1501 928 1362V1058H578V1318Q578 1397 558.0 1424.5Q538 1452 496 1452Q447 1452 430.0 1416.5Q413 1381 413 1322V441Q413 368 434.5 338.0Q456 308 496 308Q541 308 559.5 345.0Q578 382 578 441V758H932V425Q932 193 815.0 88.5Q698 -16 488 -16Z"/><path transform="translate(11700 0)" d="M78 0V1760H426V1055L590 1760H944L747 954L985 0H620L428 852V0Z"/><path transform="translate(12667 0)" d=""/><path transform="translate(13147 0)" d="M488 -16Q297 -16 180.5 103.0Q64 222 64 436V1248Q64 1504 165.5 1640.0Q267 1776 496 1776Q621 1776 718.5 1730.0Q816 1684 872.0 1592.5Q928 1501 928 1362V1058H578V1318Q578 1397 558.0 1424.5Q538 1452 496 1452Q447 1452 430.0 1416.5Q413 1381 413 1322V441Q413 368 434.5 338.0Q456 308 496 308Q541 308 559.5 345.0Q578 382 578 441V758H932V425Q932 193 815.0 88.5Q698 -16 488 -16Z"/><path transform="translate(14118 0)" d="M498 -16Q287 -16 175.5 111.5Q64 239 64 480V1316Q64 1542 174.5 1659.0Q285 1776 498 1776Q711 1776 821.5 1659.0Q932 1542 932 1316V480Q932 239 820.5 111.5Q709 -16 498 -16ZM501 308Q581 308 581 463V1322Q581 1452 503 1452Q415 1452 415 1319V461Q415 379 435.0 343.5Q455 308 501 308Z"/><path transform="translate(15114 0)" d="M485 -16Q265 -16 161.0 107.5Q57 231 57 471V1760H399V485Q399 441 404.0 400.5Q409 360 427.0 334.0Q445 308 485 308Q526 308 544.0 333.5Q562 359 566.5 400.0Q571 441 571 485V1760H913V471Q913 231 809.0 107.5Q705 -16 485 -16Z"/><path transform="translate(16084 0)" d="M78 0V1760H430V300H792V0Z"/><path transform="translate(16898 0)" d="M78 0V1760H562Q752 1760 848.0 1654.5Q944 1549 944 1346V522Q944 272 856.5 136.0Q769 0 550 0ZM432 311H493Q590 311 590 405V1313Q590 1401 566.5 1426.5Q543 1452 471 1452H432Z"/><path transform="translate(17908 0)" d=""/><path transform="translate(18388 0)" d="M78 0V1760H555Q747 1760 834.5 1666.5Q922 1573 922 1358V1281Q922 1157 877.5 1080.0Q833 1003 742 979Q861 949 901.5 838.5Q942 728 942 569Q942 398 910.0 270.0Q878 142 794.0 71.0Q710 0 555 0ZM422 1097H494Q543 1097 557.0 1135.0Q571 1173 571 1226V1403Q571 1488 496 1488H422ZM457 310Q594 310 594 440V660Q594 735 571.5 778.5Q549 822 487 822H422V312Q444 310 457 310Z"/><path transform="translate(19368 0)" d="M78 0V1760H782V1420H436V1077H768V746H436V343H805V0Z"/><path transform="translate(20211 0)" d=""/><path transform="translate(20691 0)" d="M30 0 200 1760H797L964 0H631L606 284H394L372 0ZM419 565H579L502 1460H486Z"/><path transform="translate(21685 0)" d=""/><path transform="translate(22165 0)" d="M441 -16Q64 -16 64 524V1283Q64 1776 496 1776Q674 1776 769.0 1704.5Q864 1633 900.0 1496.0Q936 1359 936 1162H592V1318Q592 1375 576.5 1413.5Q561 1452 512 1452Q451 1452 431.5 1411.0Q412 1370 412 1321V468Q412 397 430.5 352.5Q449 308 503 308Q559 308 577.5 352.5Q596 397 596 470V721H502V1025H932V0H791L731 148Q639 -16 441 -16Z"/><path transform="translate(23158 0)" d="M498 -16Q287 -16 175.5 111.5Q64 239 64 480V1316Q64 1542 174.5 1659.0Q285 1776 498 1776Q711 1776 821.5 1659.0Q932 1542 932 1316V480Q932 239 820.5 111.5Q709 -16 498 -16ZM501 308Q581 308 581 463V1322Q581 1452 503 1452Q415 1452 415 1319V461Q415 379 435.0 343.5Q455 308 501 308Z"/><path transform="translate(24154 0)" d="M498 -16Q287 -16 175.5 111.5Q64 239 64 480V1316Q64 1542 174.5 1659.0Q285 1776 498 1776Q711 1776 821.5 1659.0Q932 1542 932 1316V480Q932 239 820.5 111.5Q709 -16 498 -16ZM501 308Q581 308 581 463V1322Q581 1452 503 1452Q415 1452 415 1319V461Q415 379 435.0 343.5Q455 308 501 308Z"/><path transform="translate(25150 0)" d="M78 0V1760H562Q752 1760 848.0 1654.5Q944 1549 944 1346V522Q944 272 856.5 136.0Q769 0 550 0ZM432 311H493Q590 311 590 405V1313Q590 1401 566.5 1426.5Q543 1452 471 1452H432Z"/><path transform="translate(26160 0)" d=""/><path transform="translate(26640 0)" d="M498 -16Q287 -16 175.5 111.5Q64 239 64 480V1316Q64 1542 174.5 1659.0Q285 1776 498 1776Q711 1776 821.5 1659.0Q932 1542 932 1316V480Q932 239 820.5 111.5Q709 -16 498 -16ZM501 308Q581 308 581 463V1322Q581 1452 503 1452Q415 1452 415 1319V461Q415 379 435.0 343.5Q455 308 501 308Z"/><path transform="translate(27636 0)" d="M78 0V1760H440L602 917V1760H942V0H598L422 880V0Z"/><path transform="translate(28656 0)" d="M78 0V1760H782V1420H436V1077H768V746H436V343H805V0Z"/><path transform="translate(29499 0)" d="M55 1V299H413V1Z"/></g><text x="27" y="130" font-family="monospace" font-size="20" fill="#e8e5dd">OPEN THE APPLE SILICON AI COLLECTION</text><path d="M1120 90l42 -42m-42 0h42v42" fill="none" stroke="#e8e5dd" stroke-width="4"/></svg>
