<svg xmlns="http://www.w3.org/2000/svg" xmlns:xlink="http://www.w3.org/1999/xlink" viewBox="0 0 1200 150" role="img" aria-labelledby="title"><title id="title">02 / Selected Work. Less talk. more built.</title><defs><pattern id="grain" width="9" height="11" patternUnits="userSpaceOnUse"><circle cx="2" cy="3" r=".55" fill="#615d55" opacity=".15"/><circle cx="7" cy="9" r=".3" fill="#615d55" opacity=".12"/></pattern></defs><path fill="#e8e5dd" d="M0 0h1200v150H0z"/><path fill="url(#grain)" d="M0 0h1200v150H0z"/><text x="29" y="35" font-family="monospace" font-size="16" fill="#b7251d">02 / SELECTED WORK</text><g fill="#191918" transform="translate(27 111) scale(0.02783203125 -0.02783203125)"><path transform="translate(0 0)" d="M78 0V1760H430V300H792V0Z"/><path transform="translate(814 0)" d="M78 0V1760H782V1420H436V1077H768V746H436V343H805V0Z"/><path transform="translate(1657 0)" d="M496 -16Q255 -16 148.5 104.0Q42 224 42 486V658H390V438Q390 377 408.5 342.5Q427 308 473 308Q521 308 539.5 336.0Q558 364 558 428Q558 509 542.0 563.5Q526 618 486.5 667.5Q447 717 377 783L219 933Q42 1100 42 1315Q42 1540 146.5 1658.0Q251 1776 449 1776Q691 1776 792.5 1647.0Q894 1518 894 1255H536V1376Q536 1412 515.5 1432.0Q495 1452 460 1452Q418 1452 398.5 1428.5Q379 1405 379 1368Q379 1331 399.0 1288.0Q419 1245 478 1189L681 994Q742 936 793.0 871.5Q844 807 875.0 721.5Q906 636 906 513Q906 265 814.5 124.5Q723 -16 496 -16Z"/><path transform="translate(2602 0)" d="M496 -16Q255 -16 148.5 104.0Q42 224 42 486V658H390V438Q390 377 408.5 342.5Q427 308 473 308Q521 308 539.5 336.0Q558 364 558 428Q558 509 542.0 563.5Q526 618 486.5 667.5Q447 717 377 783L219 933Q42 1100 42 1315Q42 1540 146.5 1658.0Q251 1776 449 1776Q691 1776 792.5 1647.0Q894 1518 894 1255H536V1376Q536 1412 515.5 1432.0Q495 1452 460 1452Q418 1452 398.5 1428.5Q379 1405 379 1368Q379 1331 399.0 1288.0Q419 1245 478 1189L681 994Q742 936 793.0 871.5Q844 807 875.0 721.5Q906 636 906 513Q906 265 814.5 124.5Q723 -16 496 -16Z"/><path transform="translate(3547 0)" d=""/><path transform="translate(4027 0)" d="M229 0V1422H20V1760H790V1422H581V0Z"/><path transform="translate(4837 0)" d="M30 0 200 1760H797L964 0H631L606 284H394L372 0ZM419 565H579L502 1460H486Z"/><path transform="translate(5831 0)" d="M78 0V1760H430V300H792V0Z"/><path transform="translate(6645 0)" d="M78 0V1760H426V1055L590 1760H944L747 954L985 0H620L428 852V0Z"/><path transform="translate(7612 0)" d="M55 1V299H413V1Z"/><path transform="translate(8080 0)" d=""/><path transform="translate(8560 0)" d="M78 0V1760H614L762 687L909 1760H1450V0H1128V1268L926 0H610L396 1268V0Z"/><path transform="translate(10088 0)" d="M498 -16Q287 -16 175.5 111.5Q64 239 64 480V1316Q64 1542 174.5 1659.0Q285 1776 498 1776Q711 1776 821.5 1659.0Q932 1542 932 1316V480Q932 239 820.5 111.5Q709 -16 498 -16ZM501 308Q581 308 581 463V1322Q581 1452 503 1452Q415 1452 415 1319V461Q415 379 435.0 343.5Q455 308 501 308Z"/><path transform="translate(11084 0)" d="M78 0V1760H618Q753 1760 822.0 1698.5Q891 1637 914.5 1526.5Q938 1416 938 1267Q938 1123 901.5 1037.0Q865 951 764 918Q847 901 880.5 835.5Q914 770 914 666V0H567V689Q567 766 535.5 784.5Q504 803 434 803V0ZM436 1108H521Q594 1108 594 1267Q594 1370 578.0 1402.0Q562 1434 518 1434H436Z"/><path transform="translate(12060 0)" d="M78 0V1760H782V1420H436V1077H768V746H436V343H805V0Z"/><path transform="translate(12903 0)" d=""/><path transform="translate(13383 0)" d="M78 0V1760H555Q747 1760 834.5 1666.5Q922 1573 922 1358V1281Q922 1157 877.5 1080.0Q833 1003 742 979Q861 949 901.5 838.5Q942 728 942 569Q942 398 910.0 270.0Q878 142 794.0 71.0Q710 0 555 0ZM422 1097H494Q543 1097 557.0 1135.0Q571 1173 571 1226V1403Q571 1488 496 1488H422ZM457 310Q594 310 594 440V660Q594 735 571.5 778.5Q549 822 487 822H422V312Q444 310 457 310Z"/><path transform="translate(14363 0)" d="M485 -16Q265 -16 161.0 107.5Q57 231 57 471V1760H399V485Q399 441 404.0 400.5Q409 360 427.0 334.0Q445 308 485 308Q526 308 544.0 333.5Q562 359 566.5 400.0Q571 441 571 485V1760H913V471Q913 231 809.0 107.5Q705 -16 485 -16Z"/><path transform="translate(15333 0)" d="M62 0V1760H402V0Z"/><path transform="translate(15797 0)" d="M78 0V1760H430V300H792V0Z"/><path transform="translate(16611 0)" d="M229 0V1422H20V1760H790V1422H581V0Z"/><path transform="translate(17421 0)" d="M55 1V299H413V1Z"/></g><path d="M28 137H1172" stroke="#191918" stroke-width="2"/></svg>
